<?xml version="1.0" encoding="UTF-8" standalone="no"?>
<!-- Created with Inkscape (http://www.inkscape.org/) -->

<svg
   width="187.938mm"
   height="51.270267mm"
   viewBox="0 0 187.938 51.270267"
   version="1.1"
   id="svg1"
   xml:space="preserve"
   xmlns="http://www.w3.org/2000/svg"
   xmlns:svg="http://www.w3.org/2000/svg"><defs
     id="defs1" /><g
     id="layer1"
     style="display:inline"
     transform="translate(-11.031219,-9.2660847)"><path fill="#c72125"
       d="M 34.489031,25.709256 V 47.738157 H 27.615948 V 25.709256 h -8.049181 v -5.722007 h 22.971445 v 5.722007 z m 34.256982,16.131729 c -0.575538,1.367944 -1.401308,2.54404 -2.477313,3.528296 -1.076003,0.984251 -2.368876,1.743293 -3.87862,2.293807 -1.518086,0.550514 -3.194648,0.825769 -5.046378,0.825769 -1.876754,0 -3.570001,-0.275255 -5.071402,-0.825769 -1.501402,-0.550514 -2.777593,-1.309556 -3.820234,-2.293807 -1.04264,-0.975913 -1.851728,-2.152009 -2.410582,-3.528296 -0.567198,-1.376283 -0.842455,-2.894367 -0.842455,-4.570936 v -17.2828 h 6.83972 v 16.740628 c 0,0.759042 0.100089,1.476381 0.30028,2.15201 0.200186,0.683973 0.508808,1.284534 0.925864,1.826706 0.417057,0.533831 0.967571,0.959229 1.651542,1.27619 0.683972,0.316964 1.509743,0.467104 2.477313,0.467104 0.967568,0 1.793341,-0.158482 2.477312,-0.467104 0.683974,-0.316961 1.242826,-0.734018 1.668226,-1.27619 0.425395,-0.533834 0.734017,-1.142733 0.925862,-1.826706 0.183507,-0.675629 0.283601,-1.40131 0.283601,-2.15201 V 19.987249 h 6.864739 v 17.291142 c 0,1.668227 -0.291938,3.194649 -0.867475,4.562594 z m 5.121446,10.176168 13.94636,-34.165231 H 82.834164 L 68.887812,52.017153 Z M 94.586802,27.702786 c -5.738691,0 -10.393034,4.654344 -10.393034,10.393036 0,5.73869 4.654343,10.393035 10.393034,10.393035 3.686766,0 7.448638,-1.609837 9.475508,-4.512546 l -4.712732,-1.918456 c -1.25116,1.392966 -2.97777,1.94348 -4.762776,1.94348 -2.644132,0 -4.879555,-1.734952 -5.630253,-4.128857 h 15.864821 c 0.10012,-0.575534 0.15014,-1.159412 0.15014,-1.759973 0.009,-5.755375 -4.64602,-10.409719 -10.384708,-10.409719 z m 0,4.495864 c 2.460636,0 4.570936,1.509742 5.455098,3.661751 H 89.131714 c 0.884156,-2.152009 2.994462,-3.661751 5.455088,-3.661751 z" /><path fill="#c72125"
       d="m 118.07194,26.397753 v -1.328844 h -2.99445 v -1.337946 h 2.67589 v -1.246928 h -2.67589 v -1.210523 h 2.83062 V 19.95377 h -4.3324 v 6.443983 z m 2.77673,0 V 19.95377 h -1.56548 v 6.443983 z m 7.29998,0 V 19.95377 h -1.51088 l 0.0364,4.204972 h -0.0273 L 124.062,19.95377 h -1.77483 v 6.443983 h 1.51088 l -0.0364,-4.214074 h 0.0273 l 2.59397,4.214074 z m 7.50344,-3.240195 c 0,-2.439247 -1.85674,-3.203788 -3.68618,-3.203788 h -2.33002 v 6.443983 h 2.40284 c 1.77482,0 3.61336,-0.973879 3.61336,-3.240195 z m -1.6201,0 c 0,1.438064 -1.02849,1.893148 -2.13889,1.893148 h -0.73723 v -3.768092 h 0.77364 c 1.07399,0 2.10248,0.427779 2.10248,1.874944 z m 8.33433,3.240195 V 19.95377 h -1.55639 v 2.439248 h -2.51206 V 19.95377 h -1.55638 v 6.443983 h 1.55638 v -2.694095 h 2.51206 v 2.694095 z m 8.16772,-3.249297 c 0,-2.066079 -1.49267,-3.367618 -3.51324,-3.367618 -2.01147,0 -3.50415,1.301539 -3.50415,3.367618 0,2.038775 1.49268,3.422228 3.50415,3.422228 2.02057,0 3.51324,-1.383453 3.51324,-3.422228 z m -1.6656,0 c 0,1.165014 -0.76454,2.002368 -1.84764,2.002368 -1.0831,0 -1.83854,-0.837354 -1.83854,-2.002368 0,-1.128607 0.74634,-1.96596 1.83854,-1.96596 1.0922,0 1.84764,0.837353 1.84764,1.96596 z m 8.25168,-3.194686 h -1.72021 l -1.48357,4.569039 h -0.0364 l -1.49267,-4.569039 h -1.74752 l 2.43924,6.443983 h 1.55639 z m 5.20689,6.443983 v -1.328844 h -2.99445 v -1.337946 h 2.67589 v -1.246928 h -2.67589 v -1.210523 h 2.83062 V 19.95377 h -4.3324 v 6.443983 z m 7.02398,0 V 19.95377 h -1.51087 l 0.0364,4.204972 h -0.0273 l -2.58488,-4.204972 h -1.77482 v 6.443983 h 1.51088 l -0.0364,-4.214074 h 0.0273 l 2.59398,4.214074 z" /><path fill="#c72125"
       d="m 119.09111,34.653049 v -4.013837 h -1.55639 v 3.886413 c 0,0.691727 -0.32766,1.328844 -1.21052,1.328844 -0.87376,0 -1.21052,-0.637117 -1.21052,-1.328844 v -3.886413 h -1.54729 v 4.013837 c 0,1.547284 1.0558,2.603077 2.74871,2.603077 1.68381,0 2.77601,-1.055793 2.77601,-2.603077 z m 7.26371,2.430146 v -6.443983 h -1.51088 l 0.0364,4.204972 h -0.0273 l -2.58488,-4.204972 h -1.77482 v 6.443983 h 1.51087 l -0.0364,-4.214074 h 0.0273 l 2.59398,4.214074 z m 3.01617,0 v -6.443983 h -1.56548 v 6.443983 z m 7.14231,-6.443983 h -1.72021 l -1.48358,4.569039 h -0.0364 l -1.49268,-4.569039 h -1.74752 l 2.43925,6.443983 h 1.55639 z m 5.23126,6.443983 v -1.328844 h -2.99445 v -1.337946 h 2.67589 v -1.246928 h -2.67589 v -1.210523 h 2.83062 v -1.319742 h -4.3324 v 6.443983 z m 6.48111,0 -1.68381,-2.757806 c 0.82826,-0.254847 1.33795,-0.873761 1.33795,-1.738419 0,-1.474471 -1.22873,-1.947758 -2.46655,-1.947758 h -2.45745 v 6.443983 h 1.52908 v -2.55757 h 0.52789 l 1.39256,2.55757 z m -1.88404,-4.46892 c 0,0.65532 -0.62802,0.782743 -1.12861,0.782743 h -0.73724 v -1.501775 h 0.82826 c 0.46418,0 1.03759,0.118321 1.03759,0.719032 z m 7.19089,-1.347048 c -0.5643,-0.518795 -1.38345,-0.791845 -2.11159,-0.791845 -1.20142,0 -2.49385,0.591609 -2.49385,2.020571 0,1.165014 0.82825,1.583691 1.6474,1.847639 0.84645,0.27305 1.33794,0.427778 1.33794,0.919269 0,0.518795 -0.41867,0.700828 -0.89196,0.700828 -0.50969,0 -1.0831,-0.291253 -1.39256,-0.682625 l -1.01938,1.03759 c 0.5643,0.591609 1.49267,0.928371 2.41194,0.928371 1.27423,0 2.46655,-0.664422 2.46655,-2.147994 0,-1.283336 -1.1286,-1.656504 -2.00236,-1.938656 -0.60982,-0.191135 -0.99209,-0.32766 -0.99209,-0.755439 0,-0.509693 0.5006,-0.646218 0.90107,-0.646218 0.40047,0 0.88286,0.21844 1.14681,0.555202 z m 2.65813,5.815968 v -6.443983 h -1.56549 v 6.443983 z m 6.01664,-5.115139 v -1.328844 h -5.19706 v 1.328844 h 1.82034 v 5.115139 h 1.55638 v -5.115139 z m 6.85269,-1.328844 h -1.82034 l -1.37435,2.384638 -1.37435,-2.384638 h -1.88405 l 2.42105,3.713482 v 2.730501 h 1.55638 v -2.730501 z m 9.74376,3.194686 c 0,-2.066079 -1.49268,-3.367618 -3.51325,-3.367618 -2.01147,0 -3.50414,1.301539 -3.50414,3.367618 0,2.038775 1.49267,3.422228 3.50414,3.422228 2.02057,0 3.51325,-1.383453 3.51325,-3.422228 z m -1.66561,0 c 0,1.165014 -0.76454,2.002368 -1.84764,2.002368 -1.0831,0 -1.83853,-0.837354 -1.83853,-2.002368 0,-1.128607 0.74633,-1.96596 1.83853,-1.96596 1.0922,0 1.84764,0.837353 1.84764,1.96596 z m 7.0695,-1.865842 v -1.328844 h -4.24137 v 6.443983 h 1.53818 v -2.50296 h 2.49386 V 33.2969 h -2.49386 v -1.328844 z" /><path fill="#c72125"
       d="m 118.74707,42.669827 v -1.328844 h -5.19705 v 1.328844 h 1.82033 v 5.115139 h 1.55639 v -5.115139 z m 5.30363,5.115139 v -1.328844 h -2.99445 v -1.337946 h 2.67589 v -1.246929 h -2.67589 v -1.210522 h 2.83062 v -1.319742 h -4.3324 v 6.443983 z m 6.75974,-0.891964 -1.0831,-1.019387 c -0.27305,0.38227 -0.75544,0.65532 -1.36525,0.65532 -1.074,0 -1.82944,-0.800947 -1.82944,-1.975062 0,-1.137709 0.77365,-1.975063 1.85674,-1.975063 0.49149,0 1.01029,0.191135 1.30154,0.591609 l 1.0558,-1.055794 c -0.537,-0.618914 -1.51088,-0.946574 -2.41195,-0.946574 -1.96596,0 -3.49504,1.319742 -3.49504,3.385822 0,2.02057 1.48358,3.404024 3.46774,3.404024 1.0831,0 1.93866,-0.409575 2.50296,-1.064895 z m 6.39891,0.891964 v -6.443983 h -1.55639 v 2.439248 h -2.51206 v -2.439248 h -1.55638 v 6.443983 h 1.55638 v -2.694095 h 2.51206 v 2.694095 z m 7.27561,0 v -6.443983 h -1.51088 l 0.0364,4.204972 h -0.0273 l -2.58488,-4.204972 h -1.77482 v 6.443983 h 1.51087 l -0.0364,-4.214074 h 0.0273 l 2.59398,4.214074 z m 8.1799,-3.249297 c 0,-2.066079 -1.49267,-3.367618 -3.51324,-3.367618 -2.01147,0 -3.50414,1.301539 -3.50414,3.367618 0,2.038774 1.49267,3.422228 3.50414,3.422228 2.02057,0 3.51324,-1.383454 3.51324,-3.422228 z m -1.6656,0 c 0,1.165014 -0.76454,2.002368 -1.84764,2.002368 -1.0831,0 -1.83854,-0.837354 -1.83854,-2.002368 0,-1.128607 0.74634,-1.965961 1.83854,-1.965961 1.0922,0 1.84764,0.837354 1.84764,1.965961 z m 6.87528,3.249297 v -1.356149 h -2.49385 v -5.087834 h -1.56549 v 6.443983 z m 7.42079,-3.249297 c 0,-2.066079 -1.49267,-3.367618 -3.51324,-3.367618 -2.01147,0 -3.50415,1.301539 -3.50415,3.367618 0,2.038774 1.49268,3.422228 3.50415,3.422228 2.02057,0 3.51324,-1.383454 3.51324,-3.422228 z m -1.66561,0 c 0,1.165014 -0.76454,2.002368 -1.84763,2.002368 -1.0831,0 -1.83854,-0.837354 -1.83854,-2.002368 0,-1.128607 0.74634,-1.965961 1.83854,-1.965961 1.0922,0 1.84763,0.837354 1.84763,1.965961 z m 8.49216,2.857925 v -3.413127 h -2.65769 v 1.256031 h 1.22873 v 1.174115 c -0.27305,0.118322 -0.60982,0.172932 -0.97388,0.172932 -1.26513,0 -1.96596,-0.846455 -1.96596,-2.029672 0,-1.155913 0.80094,-2.01147 1.89314,-2.01147 0.62802,0 1.14681,0.254847 1.44717,0.600711 l 0.98298,-1.119506 c -0.537,-0.518795 -1.47447,-0.855557 -2.48476,-0.855557 -1.96596,0 -3.49504,1.319742 -3.49504,3.385822 0,2.029672 1.48357,3.394923 3.54055,3.394923 0.99208,0 1.85674,-0.227542 2.48476,-0.555202 z m 6.91741,-6.052611 h -1.82034 l -1.37435,2.384638 -1.37435,-2.384638 h -1.88405 l 2.42105,3.713481 v 2.730502 h 1.55638 v -2.730502 z" /></g></svg>
